# AST/ASF file generated using VICON BodyLanguage
# -----------------------------------------------
:version 1.10
:name VICON
:units
  mass 1.0
  length 0.45
  angle deg
:documentation
   .ast/.asf automatically generated from VICON data using
   VICON BodyBuilder and BodyLanguage model FoxedUp or BRILLIANT.MOD
:root
   order TX TY TZ RX RY RZ
   axis XYZ
   position 0 0 0  
   orientation 0 0 0 
:bonedata
  begin
     id 1 
     name lhipjoint
     direction 0.722297 -0.617336 0.311742 
     length 2.6635 
     axis 0 0 0  XYZ
  end
  begin
     id 2 
     name lfemur
     direction 0.34202 -0.939693 0  
     length 7.39349  
     axis 0 0 20  XYZ
    dof rx ry rz
    limits (-160.0 20.0)
           (-70.0 70.0)
           (-60.0 70.0)
  end
  begin
     id 3 
     name ltibia
     direction 0.34202 -0.939693 0   
     length 7.36294   
     axis 0 0 20   XYZ
    dof rx
    limits (-10.0 170.0)
  end
  begin
     id 4 
     name lfoot
     direction 0.104879 -0.288152 0.951824   
     length 2.16981   
     axis -90 7.62852e-016 20   XYZ
    dof rx rz
    limits (-45.0 90.0)
           (-70.0 20.0)
  end
  begin
     id 5 
     name ltoes
     direction 1.53586e-011 -4.21895e-011 1   
     length 1.08218   
     axis -90 7.62852e-016 20   XYZ
    dof rx
    limits (-90.0 20.0)
  end
  begin
     id 6 
     name rhipjoint
     direction -0.75102 -0.589393 0.297631   
     length 2.78977  
     axis 0 0 0  XYZ 
  end
  begin
     id 7 
     name rfemur
     direction -0.34202 -0.939693 0   
     length 7.46076   
     axis 0 0 -20   XYZ
    dof rx ry rz
    limits (-160.0 20.0)
           (-70.0 70.0)
           (-70.0 60.0)
  end
  begin
     id 8 
     name rtibia
     direction -0.34202 -0.939693 0   
     length 7.31726   
     axis 0 0 -20   XYZ
    dof rx
    limits (-10.0 170.0)
 end
 begin
     id 9 
     name rfoot
     direction -0.107991 -0.296704 0.948844   
     length 2.09388  
     axis -90 -7.62852e-016 -20   XYZ
    dof rx rz
    limits (-45.0 90.0)
           (-20.0 70.0)
  end
  begin
     id 10 
     name rtoes
     direction -1.53559e-011 -4.21911e-011 1   
     length 1.04433   
     axis -90 -7.62852e-016 -20   XYZ
    dof rx
    limits (-90.0 20.0)
  end
  begin
     id 11 
     name lowerback
     direction 0.0165164 0.98272 0.184358   
     length 1.71896   
     axis 0 0 0   XYZ
    dof rx ry rz
    limits (-20.0 45.0)
           (-30.0 30.0)
           (-30.0 30.0)
  end
  begin
     id 12 
     name upperback
     direction -0.00887249 0.992297 0.123566   
     length 1.71504   
     axis 0 0 0   XYZ
    dof rx ry rz
    limits (-20.0 45.0)
           (-30.0 30.0)
           (-30.0 30.0)
  end
  begin
     id 13 
     name thorax
     direction -0.0157026 0.998908 0.0440032   
     length 1.77022   
     axis 0 0 0   XYZ
    dof rx ry rz
    limits (-20.0 45.0)
           (-30.0 30.0)
           (-30.0 30.0)
  end
  begin
     id 14 
     name lowerneck
     direction -0.0238856 0.998137 0.0561411   
     length 1.89341   
     axis 0 0 0   XYZ
    dof rx ry rz
    limits (-20.0 45.0)
           (-30.0 30.0)
           (-30.0 30.0)
  end
  begin
     id 15 
     name upperneck
     direction 0.0276574 0.952253 -0.304056   
     length 1.86999   
     axis 0 0 0   XYZ
    dof rx ry rz
    limits (-20.0 45.0)
           (-30.0 30.0)
           (-30.0 30.0)
  end
  begin
     id 16
     name head
     direction 0.00800083 0.994258 -0.106712  
     length 1.91492  
     axis 0 0 0   XYZ
    dof rx ry rz
    limits (-20.0 45.0)
           (-30.0 30.0)
           (-30.0 30.0)
  end
  begin
     id 17 
     name lclavicle
     direction 0.97203 0.225407 0.06595  
     length 3.34889  
     axis 0 0 0   XYZ
    dof ry rz
    limits (-20.0 10.0)
           (0.0 20.0)
  end
  begin
     id 18 
     name lhumerus
     direction 1 -4.48973e-011 2.20267e-027   
     length 4.85645   
     axis 180 -30 -90   XYZ
    dof rx ry rz
    limits (-60.0 90.0)
           (-90.0 90.0)
           (-90.0 90.0)
  end
  begin
     id 19
     name lradius
     direction 1 -4.4897e-011 4.60472e-027   
     length 2.79874   
     axis 180 -30 -90   XYZ
    dof rx
    limits (-10.0 170.0)
  end
  begin
     id 20
     name lwrist
     direction 1 -4.48952e-011 1.14928e-026   
     length 1.39937   
     axis -6.29373e-015 90 90   XYZ
    dof ry
    limits (-180.0 0.0)
 end
  begin
     id 21 
     name lhand
     direction 1 -4.48967e-011 2.29886e-026   
     length 0.573398   
     axis -1.46689e-014 90 90   XYZ
    dof rx rz
    limits (-90.0 90.0)
           (-45.0 45.0)
  end
  begin
     id 22 
     name lfingers
     direction 1 -4.48955e-011 4.59726e-026   
     length 0.462289   
     axis -2.93383e-014 90 90   XYZ
    dof rx
    limits (0.0 90.0)
  end
  begin
     id 23
     name lthumb
     direction 0.707107 -6.34866e-011 0.707107   
     length 0.663757   
     axis -90 45 5.69224e-014   XYZ
    dof rx rz
    limits (-45.0 45.0)
           (-45.0 45.0)
  end
  begin
     id 24 
     name rclavicle
     direction -0.981571 0.157346 0.108443   
     length 3.35257  
     axis 0 0 0   XYZ 
    dof ry rz
    limits (-10.0 20.0)
           (-20.0 0.0)
  end
  begin
     id 25 
     name rhumerus
     direction -1 -4.48967e-011 8.58308e-029  
     length 4.67018   
     axis 180 30 90   XYZ
    dof rx ry rz
    limits (-90.0 60.0)
           (-90.0 90.0)
           (-90.0 90.0)
  end
  begin
     id 26 
     name rradius
     direction -1 -4.48958e-011 4.52548e-027   
     length 2.65534   
     axis 180 30 90   XYZ
    dof rx
    limits (-10.0 170.0)
  end
  begin
     id 27 
     name rwrist
     direction -1 -4.48977e-011 1.14952e-026   
     length 1.32767   
     axis -6.29373e-015 -90 -90   XYZ
    dof ry
    limits (-180.0 0.0)
  end
  begin
     id 28
     name rhand
     direction -1 -4.48924e-011 2.29804e-026   
     length 0.594069   
     axis -1.46689e-014 -90 -90   XYZ
    dof rx rz
    limits (-90.0 90.0)
           (-45.0 45.0)
  end
  begin
     id 29
     name rfingers
     direction -1 -4.48998e-011 4.59888e-026   
     length 0.478954   
     axis -2.93383e-014 -90 -90   XYZ
    dof rx
    limits (0.0 90.0)
  end
  begin
     id 30
     name rthumb
     direction -0.707107 -6.34933e-011 0.707107   
     length 0.687685   
     axis -90 -45 -5.69224e-014   XYZ
    dof rx rz
    limits (-45.0 45.0)
           (-45.0 45.0)
  end
:hierarchy
  begin
    root lhipjoint rhipjoint lowerback
    lhipjoint lfemur
    lfemur ltibia
    ltibia lfoot
    lfoot ltoes
    rhipjoint rfemur
    rfemur rtibia
    rtibia rfoot
    rfoot rtoes
    lowerback upperback
    upperback thorax
    thorax lowerneck lclavicle rclavicle
    lowerneck upperneck
    upperneck head
    lclavicle lhumerus
    lhumerus lradius
    lradius lwrist
    lwrist lhand lthumb
    lhand lfingers
    rclavicle rhumerus
    rhumerus rradius
    rradius rwrist
    rwrist rhand rthumb
    rhand rfingers
  end

#!OML:ASF E:\pregnant2\Project 1\Capture day 1\Session 1\pregnant2.ASF
:FULLY-SPECIFIED
:DEGREES
1959
root -11.6843 8.52402 27.8745 -85.0152 -47.1348 159.62
lowerback 0.935119 0.335769 3.86596
upperback -9.89045 0.35258 0.474036
thorax -11.0557 -0.355937 -1.64572
lowerneck -18.8681 5.65662 2.01792
upperneck 34.7982 10.9527 -13.3762
head 16.8628 2.51521 -4.2281
rclavicle -1.27222e-014 -8.82604e-014
rhumerus 16.8701 -4.41165 -50.4618
rradius 19.3243
rwrist 23.7951
rhand -41.7519 -53.3041
rfingers 7.12502
rthumb 165.344 -262.766
lclavicle -1.27222e-014 -8.82604e-014
lhumerus 17.8976 -46.4416 84.8488
lradius 29.6834
lwrist 22.4951
lhand -22.4463 50.8873
lfingers 7.12502
lthumb 183.978 -99.1701
rfemur -121.878 -0.155925 36.1031
rtibia 139.239
rfoot -9.95484 2.61479
rtoes 14.4501
lfemur -100.357 3.03352 -36.8645
ltibia 124.531
lfoot -24.3262 -14.1916
ltoes -28.6822
1960
root -11.681 8.51768 27.9144 -84.9852 -47.3341 159.425
lowerback 0.947953 0.290748 3.96251
upperback -9.86833 0.303132 0.512054
thorax -11.0421 -0.385204 -1.65388
lowerneck -18.8863 5.56567 1.92499
upperneck 34.7637 10.8291 -13.328
head 16.8214 2.45813 -4.2115
rclavicle 6.67916e-014 -6.99722e-014
rhumerus 16.8733 -4.41677 -50.2158
rradius 19.3157
rwrist 23.9561
rhand -41.6132 -52.5827
rfingers 7.12502
rthumb 165.478 -262.054
lclavicle 6.67916e-014 -6.99722e-014
lhumerus 17.9433 -46.018 85.3285
lradius 29.5037
lwrist 21.9941
lhand -22.4097 50.8796
lfingers 7.12502
lthumb 184.013 -99.1784
rfemur -121.938 -0.523441 36.379
rtibia 139.348
rfoot -9.99442 2.8182
rtoes 14.5192
lfemur -100.609 2.92675 -36.906
ltibia 124.965
lfoot -24.0191 -14.1023
ltoes -28.3578
1961
root -11.6763 8.512 27.954 -84.8816 -47.5217 159.164
lowerback 0.939265 0.238971 4.01745
upperback -9.85092 0.23954 0.541224
thorax -11.0215 -0.418191 -1.64682
lowerneck -18.9214 5.4616 1.81597
upperneck 34.7403 10.6854 -13.2551
head 16.7841 2.39297 -4.18528
rclavicle -1.74931e-014 8.34896e-014
rhumerus 16.8826 -4.5675 -50.0166
rradius 19.2698
rwrist 24.3336
rhand -41.4178 -51.8586
rfingers 7.12502
rthumb 165.666 -261.344
lclavicle -1.74931e-014 8.34896e-014
lhumerus 18.0215 -45.6473 85.7795
lradius 29.3372
lwrist 21.5357
lhand -22.4071 50.8581
lfingers 7.12502
lthumb 184.016 -99.2
rfemur -122.039 -0.89946 36.6582
rtibia 139.461
rfoot -10.0404 2.95178
rtoes 14.5671
lfemur -100.839 2.73738 -36.9249
ltibia 125.321
lfoot -23.7672 -14.0591
ltoes -28.1312
1962
root -11.6705 8.5067 27.9935 -84.7404 -47.7061 158.864
lowerback 0.925447 0.183703 4.04744
upperback -9.83527 0.168729 0.563825
thorax -11 -0.452796 -1.63218
lowerneck -18.9674 5.34644 1.69026
upperneck 34.7158 10.5274 -13.1678
head 16.7451 2.32149 -4.15208
rclavicle 4.77083e-015 -3.26007e-014
rhumerus 16.8786 -4.72728 -49.8071
rradius 19.2235
rwrist 24.7761
rhand -41.166 -51.1843
rfingers 7.12502
rthumb 165.908 -260.686
lclavicle 4.77083e-015 -3.26007e-014
lhumerus 18.1067 -45.3485 86.1997
lradius 29.2141
lwrist 21.0755
lhand -22.432 50.9015
lfingers 7.12502
lthumb 183.992 -99.1561
rfemur -122.158 -1.26693 36.9472
rtibia 139.585
rfoot -10.1006 3.00756
rtoes 14.5063
lfemur -101.031 2.49407 -36.9072
ltibia 125.603
lfoot -23.5834 -14.0836
ltoes -28.0002
1963
root -11.6638 8.50195 28.0333 -84.5935 -47.8915 158.555
lowerback 0.912399 0.131063 4.07638
upperback -9.81503 0.100552 0.570774
thorax -10.9736 -0.486428 -1.63421
lowerneck -19.0231 5.2242 1.56874
upperneck 34.6867 10.3573 -13.0753
head 16.7048 2.24659 -4.11917
rclavicle 2.70347e-014 -2.22639e-014
rhumerus 16.8498 -4.86069 -49.5771
rradius 19.1947
rwrist 25.2252
rhand -40.8735 -50.5668
rfingers 7.12502
rthumb 166.19 -260.088
lclavicle 2.70347e-014 -2.22639e-014
lhumerus 18.1925 -45.0574 86.6174
lradius 29.0698
lwrist 20.582
lhand -22.3095 51.0188
lfingers 7.12502
lthumb 184.11 -99.0411
rfemur -122.28 -1.61233 37.2408
rtibia 139.714
rfoot -10.1644 3.00467
rtoes 14.3981
lfemur -101.181 2.22621 -36.8476
ltibia 125.823
lfoot -23.4788 -14.1777
ltoes -27.9488
1964
root -11.6565 8.49789 28.0737 -84.4784 -48.0764 158.269
lowerback 0.917547 0.0843698 4.09114
upperback -9.7895 0.0408482 0.574996
thorax -10.9515 -0.5144 -1.63226
lowerneck -19.0777 5.09636 1.44229
upperneck 34.6404 10.1836 -12.9917
head 16.6562 2.16933 -4.08892
rclavicle -3.18055e-015 -6.44062e-014
rhumerus 16.7898 -4.87971 -49.2821
rradius 19.2059
rwrist 25.6035
rhand -40.579 -50.0567
rfingers 7.12502
rthumb 166.474 -259.597
lclavicle -3.18055e-015 -6.44062e-014
lhumerus 18.2622 -44.7628 87.0569
lradius 28.9292
lwrist 20.0317
lhand -22.0603 51.2803
lfingers 7.12502
lthumb 184.351 -98.7844
rfemur -122.391 -1.92607 37.5297
rtibia 139.85
rfoot -10.2264 2.959
rtoes 14.2734
lfemur -101.282 1.96476 -36.7521
ltibia 126
lfoot -23.4531 -14.3244
ltoes -27.9641
